<svg width="58" height="72" viewBox="0 0 58 72" fill="none" xmlns="http://www.w3.org/2000/svg">
<path d="M57.2499 1.40093L47.8796 0.0147489C47.6024 -0.0406986 47.3251 0.0701895 47.2143 0.181084L43.2222 5.39314C42.945 5.72582 42.8895 6.1694 43.0004 6.55754C43.1113 6.94567 42.7786 7.27836 42.3905 7.22291L39.1192 6.50209C38.6202 6.39119 38.0658 6.55755 37.7331 7.00113L24.7589 23.6353C24.5371 23.968 24.0935 24.0789 23.7054 23.9126L18.7708 21.6947C18.3272 21.4729 17.8282 21.5283 17.4401 21.8056L14.9451 23.5244C14.5569 23.8017 14.0025 23.8571 13.5589 23.6353L12.3391 23.0254C11.5629 22.6373 10.6203 23.0809 10.3985 23.9126L9.51141 27.8493C9.28963 28.7919 9.67775 29.7346 10.5094 30.2336L12.3946 31.398L18.4381 35.113L21.3767 36.9427C22.2084 37.4418 23.2619 37.3308 23.9827 36.7209L28.9173 32.396C29.3054 32.0633 29.9153 31.9525 30.3589 32.2297L31.8559 33.006C32.3549 33.2832 32.9648 33.1723 33.3529 32.7842L35.848 30.4554C36.2361 30.0672 36.846 30.0118 37.2895 30.2336L41.0044 31.9525C41.5588 32.2297 42.2242 32.0633 42.6123 31.5643L44.3311 29.3464L57.3607 12.6568C57.9706 11.8805 57.5825 10.7161 56.5845 10.4943L53.7014 9.82893C53.0915 9.71804 52.8142 8.94178 53.2578 8.4982L57.7489 2.898C58.1924 2.23264 57.9152 1.51183 57.2499 1.40093Z" fill="#C4C4CC"/>
<path d="M14.2797 35.0019C14.0025 34.8355 13.7253 35.1128 13.8362 35.39L15.2223 39.0495C15.3332 39.3268 15.3332 39.604 15.2777 39.8812L14.0579 44.6497C14.0025 44.9824 14.1134 45.3151 14.3352 45.4814L17.8282 48.1984C18.1609 48.4201 18.6045 48.4202 18.8817 48.1429L22.5411 44.9269C22.7629 44.7606 23.0401 44.6497 23.2619 44.5943L27.4203 44.1507C27.6975 44.0953 27.8084 43.7071 27.5312 43.5408L14.2797 35.0019Z" fill="#C4C4CC"/>
<path d="M13.0599 47.3114C12.8381 47.1451 12.5054 47.0896 12.2282 47.2005L9.28961 48.6421C9.12327 48.6976 9.01237 48.8639 8.90148 49.0303L2.63616 64.5001C2.63616 64.5556 2.63616 64.5555 2.63616 64.611C2.69161 64.6664 2.74705 64.7219 2.85794 64.7219L4.29952 64.1674C4.35497 64.1674 4.41041 64.1674 4.46585 64.1674C4.5213 64.2229 4.57675 64.3338 4.5213 64.3892L0.030222 71.7637C-0.0806688 71.9301 0.141118 72.0964 0.252008 71.9301L16.4975 55.6285C16.6638 55.4622 16.7193 55.2958 16.7747 55.0741L17.1074 50.86C17.1074 50.5828 16.9965 50.361 16.8302 50.1947L13.0599 47.3114Z" fill="#C4C4CC"/>
</svg>
